<svg width="307" height="300" viewBox="0 0 307 300" fill="none" xmlns="http://www.w3.org/2000/svg">
<path fill-rule="evenodd" clip-rule="evenodd" d="M153.333 0C238.014 0 306.666 67.159 306.666 149.999C306.666 232.84 238.018 299.999 153.333 299.999C68.6515 299.999 0 232.844 0 149.999C0 67.159 68.6475 0 153.333 0Z" fill="#696944"/>
<path d="M52.2942 108.544C55.108 108.544 57.5539 107.152 58.8153 105.08H58.8476L58.981 108.252H59.9715V97.5692C59.9715 94.9154 56.9596 92.9419 53.4868 92.9419C51.3037 92.9419 49.3186 93.4917 47.7621 94.4329L48.3888 95.4019C49.6785 94.6228 51.433 94.073 53.4868 94.073C56.5311 94.073 58.8153 95.7579 58.8153 97.5692V98.993H51.6999C48.5222 98.993 45.8094 101.002 45.8094 103.624C45.8094 106.377 48.1583 108.544 52.2982 108.544H52.2942ZM52.2942 107.377C48.7203 107.377 46.998 105.661 46.998 103.62C46.998 101.809 48.9831 100.156 51.6999 100.156H58.8153V102.197C58.8153 104.656 55.9691 107.377 52.2942 107.377ZM52.9249 90.6085L56.2359 87.3694L55.3748 86.5586L52.1001 89.7977L52.9289 90.6085H52.9249Z" fill="#FEFEFE" stroke="#FEFEFE" stroke-width="0.0452058" stroke-miterlimit="22.9256"/>
<path d="M61.1804 134.714C65.6517 134.714 67.281 133.441 67.281 133.441C69.1448 132.373 70.0746 130.561 70.0746 128.094C70.0746 126.12 69.2822 124.435 67.7459 123.28C66.1611 122.046 63.8325 121.429 60.9014 121.429H44.8796V154.449H46.1369V134.71H59.83L69.3792 154.449H70.7295L61.1804 134.71V134.714ZM46.1369 133.646V122.545H60.8529C65.9307 122.545 68.8173 124.558 68.8173 128.097C68.8173 130.194 68.0734 131.633 66.5816 132.495C65.2758 133.235 63.416 133.646 60.8529 133.646H46.1369ZM115.613 154.453H117.069L96.9231 113.172H95.4677L75.3222 154.453H76.8342L87.9521 131.578H104.431L115.609 154.453H115.613ZM88.5989 130.344L96.2237 114.714L103.792 130.344H88.5949H88.5989ZM131.073 105.285H129.201V154.457H131.073V105.285ZM228.91 152.65C217.784 152.65 208.849 146.235 208.849 138.281V100.789H206.808V139.282H206.884C207.188 143.292 209.46 146.967 213.393 149.775C217.558 152.78 223.007 154.453 228.91 154.453C234.812 154.453 240.339 152.78 244.503 149.775C248.744 146.769 251.089 142.691 251.089 138.345V100.785H249.043V138.278C249.043 146.231 240.036 152.646 228.91 152.646V152.65Z" fill="#FEFEFE"/>
<path d="M66.8605 132.875L67.6974 134.002L67.7863 133.943L67.7621 133.959L67.7459 133.971L67.6974 134.002L67.6448 134.034L67.5923 134.069L67.5195 134.113L67.4387 134.16L67.3457 134.212L67.2406 134.267L67.1274 134.323L66.998 134.386L66.8565 134.449L66.7029 134.512L66.5371 134.576L66.3592 134.639L66.1692 134.702L65.9671 134.766L65.7447 134.829L65.5143 134.892L65.2677 134.955L65.0089 135.015L64.738 135.07L64.447 135.121L64.1478 135.169L63.8284 135.216L63.4928 135.256L63.1492 135.292L62.7853 135.323L62.4053 135.347L62.0132 135.363L61.6008 135.375L61.1763 135.379V134.034L61.5725 134.03L61.9525 134.022L62.3164 134.006L62.66 133.986L62.9915 133.959L63.3069 133.927L63.606 133.891L63.889 133.852L64.1599 133.808L64.4106 133.761L64.6491 133.71L64.8755 133.658L65.0857 133.607L65.2879 133.551L65.4698 133.5L65.6396 133.445L65.8013 133.393L65.9468 133.342L66.0762 133.29L66.1975 133.239L66.3067 133.191L66.3996 133.148L66.4886 133.104L66.5614 133.065L66.626 133.029L66.6786 133.002L66.715 132.978L66.7554 132.954L66.7756 132.942V132.938L66.7918 132.926L66.7797 132.938L66.8686 132.879L66.8605 132.875ZM66.7716 132.934L66.8161 132.899L66.8605 132.871L66.7716 132.93V132.934ZM69.3064 128.094H70.8346L70.8306 128.339L70.8225 128.58L70.8104 128.817L70.7902 129.051L70.7619 129.28L70.7295 129.509L70.6891 129.731L70.6446 129.948L70.5921 130.166L70.5355 130.379L70.4748 130.589L70.4061 130.795L70.3293 130.996L70.2484 131.194L70.1595 131.388L70.0625 131.578L69.9614 131.764L69.8522 131.946L69.739 132.124L69.6177 132.298L69.4924 132.468L69.359 132.634L69.2216 132.792L69.076 132.95L68.9224 133.1L68.7647 133.243L68.599 133.385L68.4292 133.52L68.2553 133.65L68.0693 133.777L67.8834 133.895L67.6893 134.01L66.8524 132.883L67.002 132.792L67.1476 132.697L67.285 132.602L67.4184 132.503L67.5519 132.4L67.6772 132.294L67.7985 132.183L67.9117 132.068L68.0208 131.95L68.1259 131.827L68.227 131.7L68.324 131.574L68.417 131.439L68.506 131.301L68.5909 131.159L68.6717 131.012L68.7445 130.862L68.8132 130.708L68.8779 130.55L68.9386 130.387L68.9952 130.221L69.0477 130.051L69.0962 129.877L69.1367 129.695L69.1771 129.509L69.2094 129.324L69.2377 129.13L69.2579 128.932L69.2741 128.73L69.2862 128.525L69.2943 128.315L69.2984 128.101L69.3064 128.094ZM67.2365 123.787L68.2472 122.778L68.2351 122.77L68.3968 122.893L68.5504 123.019L68.7 123.15L68.8456 123.284L68.9871 123.419L69.1205 123.561L69.2498 123.704L69.3711 123.846L69.4924 123.996L69.6097 124.15L69.7188 124.305L69.8199 124.459L69.921 124.621L70.018 124.787L70.1069 124.953L70.1918 125.119L70.2686 125.289L70.3455 125.463L70.4142 125.638L70.4789 125.815L70.5355 125.997L70.588 126.179L70.6365 126.361L70.681 126.547L70.7174 126.733L70.7497 126.923L70.778 127.113L70.7983 127.306L70.8185 127.5L70.8306 127.698L70.8387 127.896L70.8427 128.094H69.3145L69.3105 127.923L69.3064 127.757L69.2943 127.591L69.2782 127.425L69.2579 127.263L69.2337 127.105L69.2054 126.947L69.1771 126.792L69.1407 126.638L69.1003 126.488L69.0558 126.338L69.0113 126.195L68.9588 126.053L68.9022 125.91L68.8456 125.772L68.7809 125.634L68.7162 125.499L68.6434 125.369L68.5707 125.238L68.4938 125.111L68.4089 124.985L68.32 124.862L68.2311 124.744L68.1381 124.629L68.037 124.51L67.9359 124.4L67.8308 124.293L67.7217 124.186L67.6085 124.083L67.4912 123.98L67.3699 123.882L67.2446 123.787L67.2325 123.779L67.2365 123.787ZM67.2486 123.795L67.2365 123.787L67.2406 123.791L67.2446 123.795H67.2486ZM60.8973 122.106V120.761L61.1803 120.765L61.4633 120.769L61.7423 120.777L62.0172 120.789L62.2881 120.805L62.5549 120.824L62.8217 120.848L63.0845 120.876L63.3433 120.907L63.598 120.943L63.8486 120.983L64.0952 121.026L64.3418 121.073L64.5804 121.125L64.8149 121.18L65.0493 121.24L65.2798 121.303L65.5062 121.37L65.7326 121.445L65.9509 121.52L66.1652 121.599L66.3754 121.687L66.5816 121.777L66.7837 121.872L66.9818 121.967L67.1759 122.07L67.3659 122.177L67.5519 122.288L67.7297 122.402L67.9076 122.521L68.0815 122.644L68.2472 122.77L67.2365 123.779L67.1031 123.676L66.9656 123.577L66.8241 123.482L66.6786 123.391L66.529 123.304L66.3754 123.217L66.2177 123.134L66.056 123.055L65.8902 122.98L65.7204 122.905L65.5466 122.833L65.3687 122.766L65.1827 122.703L64.9968 122.64L64.8027 122.58L64.6087 122.525L64.4106 122.474L64.2044 122.426L63.9942 122.379L63.7839 122.339L63.5656 122.3L63.3433 122.264L63.1169 122.232L62.8864 122.205L62.6519 122.177L62.4134 122.153L62.1708 122.133L61.9283 122.118L61.6776 122.106L61.4229 122.098L61.1642 122.094L60.9014 122.09L60.8973 122.106ZM44.8755 120.761H60.8973V122.106H44.8755L44.1115 121.433L44.8755 120.761ZM44.1115 121.433V120.761H44.8755L44.1115 121.433ZM44.1115 154.453V121.433H45.6396V154.453L44.8755 155.126L44.1115 154.453ZM44.8755 155.126H44.1115V154.453L44.8755 155.126ZM46.1329 155.126H44.8755V153.781H46.1329L46.897 154.453L46.1329 155.126ZM46.897 154.453V155.126H46.1329L46.897 154.453ZM46.897 134.714V154.453H45.3688V134.714L46.1329 134.042L46.897 134.714ZM45.3688 134.714V134.042H46.1329L45.3688 134.714ZM59.826 135.386H46.1329V134.042H59.826L60.5294 134.453L59.826 135.39V135.386ZM59.826 134.042H60.3313L60.5294 134.453L59.826 134.042ZM68.6717 154.718L59.1225 134.979L60.5294 134.453L70.0786 154.192L69.3752 155.13L68.6717 154.718ZM69.3752 155.13H68.8698L68.6717 154.718L69.3752 155.13ZM70.7255 155.13H69.3752V153.785H70.7255L71.4289 154.196L70.7255 155.134V155.13ZM71.4289 154.192L71.8817 155.13H70.7255L71.4289 154.192ZM61.8797 134.453L71.4289 154.192L70.022 154.718L60.4728 134.979L61.1763 134.042L61.8797 134.453ZM60.4728 134.979L60.02 134.042H61.1763L60.4728 134.979ZM46.897 122.545V133.646H45.3688V122.545L46.1329 121.872L46.897 122.545ZM45.3688 122.545V121.872H46.1329L45.3688 122.545ZM60.8488 123.217H46.1329V121.872H60.8488V123.217ZM69.5773 128.094H68.0491L68.041 127.797L68.0168 127.512L67.9804 127.235L67.9278 126.97L67.8632 126.713L67.7823 126.468L67.6893 126.235L67.5842 126.009L67.4629 125.792L67.3295 125.582L67.184 125.384L67.0263 125.195L66.8524 125.013L66.6665 124.839L66.4684 124.673L66.2541 124.514L66.0277 124.364L65.7851 124.222L65.5304 124.087L65.2596 123.961L64.9725 123.846L64.6693 123.739L64.354 123.64L64.0225 123.549L63.6748 123.47L63.3109 123.399L62.9349 123.34L62.5468 123.288L62.1425 123.249L61.7221 123.221L61.2895 123.205L60.8407 123.201V121.857L61.334 121.864L61.8151 121.88L62.28 121.912L62.7368 121.955L63.1815 122.011L63.6141 122.078L64.0305 122.161L64.4348 122.252L64.831 122.359L65.2111 122.477L65.579 122.608L65.9307 122.75L66.2703 122.905L66.5977 123.075L66.909 123.257L67.2042 123.45L67.4831 123.66L67.7459 123.878L67.9966 124.111L68.227 124.356L68.4413 124.613L68.6353 124.882L68.8132 125.159L68.9709 125.448L69.1124 125.744L69.2337 126.053L69.3348 126.369L69.4197 126.693L69.4843 127.03L69.5329 127.374L69.5611 127.726L69.5692 128.082L69.5773 128.094ZM66.9899 133.057L66.1611 131.926L66.1571 131.93L66.2743 131.859L66.3875 131.783L66.4967 131.708L66.5977 131.633L66.6988 131.55L66.7958 131.467L66.8848 131.384L66.9737 131.293L67.0627 131.198L67.1435 131.103L67.2203 131.008L67.2931 130.909L67.3659 130.803L67.4346 130.696L67.4993 130.585L67.5599 130.47L67.6165 130.352L67.6691 130.233L67.7176 130.107L67.7661 129.976L67.8066 129.846L67.847 129.703L67.8834 129.561L67.9157 129.414L67.944 129.26L67.9723 129.106L67.9925 128.948L68.0087 128.782L68.0249 128.612L68.033 128.442L68.037 128.264L68.041 128.082H69.5692L69.5652 128.291L69.5611 128.493L69.549 128.699L69.5329 128.896L69.5126 129.09L69.4843 129.284L69.452 129.47L69.4156 129.652L69.3752 129.838L69.3267 130.02L69.2741 130.194L69.2175 130.368L69.1569 130.534L69.0922 130.7L69.0194 130.866L68.9426 131.024L68.8577 131.178L68.7688 131.329L68.6758 131.475L68.5787 131.617L68.4736 131.76L68.3604 131.898L68.2432 132.033L68.1259 132.159L68.0006 132.286L67.8672 132.408L67.7338 132.523L67.5963 132.634L67.4508 132.745L67.3012 132.847L67.1476 132.946L66.9899 133.041L66.9859 133.045L66.9899 133.057ZM66.9939 133.053L66.9899 133.057L66.9859 133.061L66.998 133.057L66.9939 133.053ZM60.8448 134.315V132.97H61.0752L61.3016 132.966L61.524 132.962L61.7383 132.954L61.9485 132.942L62.1547 132.93L62.3568 132.915L62.5549 132.899L62.749 132.879L62.939 132.859L63.129 132.836L63.3109 132.812L63.4888 132.784L63.6667 132.756L63.8365 132.725L64.0022 132.693L64.164 132.658L64.3216 132.622L64.4793 132.582L64.6329 132.543L64.7785 132.503L64.92 132.46L65.0615 132.412L65.1989 132.365L65.3283 132.317L65.4536 132.266L65.579 132.215L65.7043 132.159L65.8215 132.104L65.9347 132.048L66.0479 131.989L66.1571 131.93L66.9859 133.061L66.8444 133.14L66.7029 133.215L66.5573 133.29L66.4037 133.362L66.2541 133.429L66.1005 133.492L65.9388 133.555L65.773 133.615L65.6072 133.67L65.4415 133.725L65.2677 133.777L65.0898 133.828L64.9119 133.876L64.73 133.919L64.544 133.963L64.354 134.002L64.1599 134.042L63.9618 134.077L63.7637 134.109L63.5616 134.141L63.3554 134.168L63.1452 134.196L62.9309 134.22L62.7166 134.24L62.4943 134.255L62.2679 134.271L62.0415 134.287L61.807 134.299L61.5725 134.307L61.334 134.315L61.0914 134.319H60.8448V134.315ZM46.1288 132.97H60.8448V134.315H46.1288L45.3647 133.642L46.1288 132.97ZM46.1288 134.315H45.3647V133.642L46.1288 134.315ZM117.061 155.122H115.605V153.777H117.061L117.764 154.184L117.061 155.122ZM117.764 154.184L118.221 155.122H117.061L117.764 154.184ZM97.6185 112.903L117.764 154.184L116.357 154.714L96.2116 113.433L96.915 112.495L97.6185 112.903ZM96.915 112.495H97.4204L97.6185 112.903L96.915 112.495ZM95.4596 112.495H96.915V113.84H95.4596L94.7562 112.903L95.4596 112.495ZM94.7562 112.903L94.9543 112.495H95.4596L94.7562 112.903ZM74.6107 154.184L94.7562 112.903L96.1631 113.433L76.0176 154.714L75.3141 155.122L74.6107 154.184ZM75.3141 155.122H74.1538L74.6107 154.184L75.3141 155.122ZM76.8261 155.122H75.3141V153.777H76.8261L77.5296 154.714L76.8261 155.122ZM77.5296 154.714L77.3315 155.122H76.8261L77.5296 154.714ZM88.6474 131.839L77.5296 154.714L76.1227 154.184L87.2405 131.309L87.944 130.902L88.6474 131.839ZM87.2405 131.309L87.4386 130.902H87.944L87.2405 131.309ZM104.423 132.246H87.944V130.902H104.423L105.126 131.309L104.423 132.246ZM104.423 130.902H104.924L105.122 131.309L104.419 130.902H104.423ZM114.902 154.718L103.723 131.843L105.126 131.313L116.305 154.188L115.601 155.126L114.898 154.718H114.902ZM115.605 155.126H115.104L114.906 154.718L115.609 155.126H115.605ZM96.9191 114.979L89.2943 130.609L87.8874 130.079L95.5122 114.449L96.9191 114.453V114.983V114.979ZM95.5122 114.449L96.2156 113.005L96.915 114.453L95.5081 114.449H95.5122ZM103.08 130.605L95.5122 114.975L96.9191 114.449L104.487 130.079L103.784 131.016L103.08 130.605ZM104.487 130.079L104.94 131.016H103.784L104.487 130.079ZM88.5908 129.668H103.788V131.012H88.5908L87.8874 130.075L88.5908 129.668ZM88.5908 131.012H87.4305L87.8874 130.075L88.5908 131.012ZM129.193 104.605H131.065V105.95H129.193L128.429 105.277L129.193 104.605ZM128.429 105.277V104.605H129.193L128.429 105.277ZM128.429 154.449V105.277H129.957V154.449L129.193 155.122L128.429 154.449ZM129.193 155.122H128.429V154.449L129.193 155.122ZM131.065 155.122H129.193V153.777H131.065L131.829 154.449L131.065 155.122ZM131.829 154.449V155.122H131.065L131.829 154.449ZM131.829 105.277V154.449H130.301V105.277L131.065 104.605L131.829 105.277ZM131.065 104.605H131.829V105.277L131.065 104.605ZM208.081 138.274H209.609L209.634 138.974L209.706 139.662L209.828 140.342L209.993 141.01L210.204 141.667L210.458 142.312L210.757 142.944L211.097 143.561L211.477 144.166L211.898 144.756L212.354 145.329L212.852 145.887L213.381 146.425L213.951 146.943L214.554 147.441L215.188 147.92L215.855 148.378L216.555 148.814L217.283 149.221L218.039 149.608L218.823 149.968L219.632 150.305L220.468 150.609L221.325 150.886L222.207 151.135L223.112 151.353L224.034 151.538L224.976 151.693L225.938 151.815L226.913 151.902L227.903 151.958L228.91 151.974V153.318L227.843 153.298L226.791 153.243L225.752 153.148L224.73 153.018L223.727 152.852L222.745 152.65L221.778 152.416L220.836 152.151L219.919 151.855L219.021 151.527L218.152 151.171L217.307 150.783L216.49 150.368L215.706 149.925L214.95 149.454L214.226 148.96L213.535 148.442L212.88 147.9L212.261 147.334L211.675 146.745L211.129 146.136L210.624 145.507L210.159 144.855L209.739 144.186L209.363 143.498L209.031 142.794L208.748 142.074L208.514 141.339L208.328 140.591L208.194 139.828L208.113 139.057L208.085 138.274H208.081ZM209.609 100.781V138.274H208.081V100.781L208.845 100.108L209.609 100.781ZM208.845 100.108H209.609V100.781L208.845 100.108ZM206.804 100.108H208.845V101.453H206.804L206.039 100.781L206.804 100.108ZM206.039 100.781V100.108H206.804L206.039 100.781ZM206.039 139.274V100.781H207.568V139.274L206.804 139.947L206.039 139.274ZM206.804 139.947H206.039V139.274L206.804 139.947ZM206.88 139.947H206.804V138.602H206.88L207.644 139.231L206.88 139.95V139.947ZM206.88 138.602H207.596L207.644 139.231L206.88 138.602ZM213.875 149.249L212.904 150.289L212.908 150.293L212.532 150.016L212.164 149.735L211.809 149.446L211.461 149.158L211.121 148.861L210.794 148.56L210.479 148.252L210.171 147.939L209.876 147.623L209.593 147.303L209.318 146.978L209.055 146.646L208.805 146.314L208.562 145.978L208.332 145.634L208.109 145.29L207.899 144.942L207.701 144.59L207.515 144.234L207.337 143.874L207.171 143.51L207.018 143.142L206.876 142.774L206.747 142.399L206.626 142.023L206.521 141.643L206.424 141.264L206.339 140.88L206.266 140.492L206.205 140.105L206.157 139.713L206.12 139.322L207.644 139.231L207.677 139.587L207.721 139.943L207.778 140.295L207.843 140.647L207.919 140.995L208.008 141.339L208.105 141.683L208.215 142.023L208.332 142.359L208.461 142.695L208.599 143.027L208.748 143.356L208.91 143.684L209.08 144.008L209.258 144.329L209.448 144.649L209.65 144.961L209.86 145.274L210.082 145.582L210.317 145.891L210.555 146.191L210.81 146.488L211.073 146.781L211.344 147.069L211.627 147.358L211.918 147.639L212.221 147.916L212.532 148.189L212.856 148.458L213.187 148.723L213.527 148.984L213.879 149.241L213.883 149.245L213.875 149.249ZM213.87 149.245L213.875 149.249L213.765 149.169L213.87 149.245ZM228.906 153.773V155.118L228.34 155.114L227.774 155.098L227.212 155.074L226.65 155.039L226.096 154.995L225.546 154.944L224.996 154.88L224.451 154.805L223.909 154.722L223.371 154.627L222.842 154.524L222.312 154.414L221.786 154.291L221.269 154.161L220.755 154.022L220.246 153.872L219.741 153.714L219.239 153.544L218.746 153.37L218.257 153.184L217.776 152.99L217.299 152.788L216.83 152.575L216.369 152.353L215.912 152.124L215.463 151.887L215.019 151.641L214.582 151.384L214.153 151.123L213.729 150.854L213.313 150.573L212.904 150.285L213.875 149.245L214.255 149.51L214.643 149.771L215.039 150.024L215.439 150.269L215.847 150.506L216.26 150.736L216.684 150.957L217.113 151.171L217.545 151.376L217.986 151.574L218.431 151.764L218.884 151.946L219.34 152.12L219.805 152.286L220.274 152.444L220.747 152.59L221.224 152.733L221.705 152.863L222.195 152.986L222.688 153.101L223.185 153.207L223.686 153.302L224.192 153.389L224.701 153.468L225.215 153.54L225.732 153.599L226.254 153.65L226.779 153.694L227.305 153.726L227.838 153.749L228.372 153.765L228.91 153.769L228.906 153.773ZM244.018 149.245L244.976 150.293L244.98 150.289L244.572 150.577L244.155 150.858L243.731 151.131L243.298 151.392L242.858 151.649L242.413 151.894L241.96 152.132L241.499 152.361L241.034 152.583L240.561 152.796L240.08 152.998L239.595 153.192L239.102 153.378L238.605 153.552L238.099 153.718L237.594 153.876L237.08 154.026L236.563 154.165L236.041 154.295L235.516 154.418L234.986 154.528L234.449 154.631L233.911 154.726L233.365 154.809L232.819 154.884L232.265 154.948L231.712 154.999L231.154 155.043L230.592 155.078L230.03 155.102L229.464 155.118L228.898 155.122V153.777L229.435 153.773L229.969 153.757L230.503 153.733L231.032 153.702L231.562 153.658L232.083 153.607L232.601 153.548L233.118 153.476L233.632 153.397L234.141 153.31L234.647 153.215L235.148 153.109L235.645 152.994L236.138 152.871L236.624 152.741L237.105 152.598L237.582 152.452L238.055 152.294L238.52 152.128L238.981 151.954L239.433 151.772L239.882 151.582L240.327 151.384L240.763 151.179L241.192 150.965L241.617 150.744L242.033 150.514L242.445 150.277L242.846 150.032L243.242 149.779L243.63 149.517L244.01 149.253L244.014 149.249L244.018 149.245ZM244.014 149.249L244.018 149.245L244.046 149.225L244.014 149.249ZM250.321 138.341H251.849L251.841 138.768L251.821 139.195L251.784 139.618L251.736 140.041L251.671 140.461L251.594 140.876L251.501 141.291L251.396 141.703L251.275 142.114L251.141 142.517L250.996 142.917L250.838 143.316L250.664 143.708L250.478 144.099L250.276 144.487L250.066 144.87L249.84 145.25L249.601 145.622L249.35 145.99L249.088 146.354L248.813 146.713L248.526 147.065L248.227 147.413L247.915 147.758L247.592 148.094L247.256 148.426L246.909 148.754L246.545 149.075L246.173 149.391L245.789 149.699L245.393 150.004L244.984 150.301L244.026 149.253L244.402 148.98L244.766 148.699L245.122 148.414L245.465 148.121L245.797 147.825L246.116 147.524L246.427 147.216L246.727 146.903L247.014 146.587L247.289 146.267L247.551 145.942L247.802 145.614L248.041 145.282L248.267 144.946L248.485 144.605L248.691 144.261L248.886 143.913L249.067 143.561L249.237 143.205L249.395 142.849L249.54 142.49L249.674 142.126L249.795 141.758L249.904 141.39L250.001 141.018L250.086 140.647L250.155 140.271L250.212 139.891L250.256 139.511L250.288 139.128L250.309 138.744L250.317 138.357L250.321 138.341ZM251.849 100.781V138.341H250.321V100.781L251.085 100.108L251.849 100.781ZM251.085 100.108H251.849V100.781L251.085 100.108ZM249.039 100.108H251.085V101.453H249.039L248.275 100.781L249.039 100.108ZM248.275 100.781V100.108H249.039L248.275 100.781ZM248.275 138.274V100.781H249.803V138.274H248.275ZM228.906 153.314V151.97L229.912 151.954L230.903 151.898L231.881 151.811L232.844 151.689L233.786 151.535L234.711 151.349L235.617 151.131L236.502 150.882L237.363 150.605L238.2 150.301L239.013 149.964L239.801 149.604L240.561 149.221L241.293 148.81L241.997 148.375L242.668 147.916L243.306 147.437L243.913 146.939L244.483 146.421L245.017 145.883L245.518 145.325L245.979 144.752L246.403 144.162L246.787 143.557L247.131 142.94L247.43 142.308L247.685 141.663L247.899 141.006L248.069 140.338L248.19 139.658L248.263 138.97L248.287 138.27H249.815L249.787 139.053L249.706 139.824L249.573 140.587L249.387 141.335L249.148 142.07L248.861 142.79L248.53 143.494L248.15 144.182L247.725 144.851L247.26 145.503L246.755 146.132L246.205 146.741L245.619 147.33L244.996 147.896L244.337 148.438L243.646 148.956L242.918 149.45L242.158 149.921L241.37 150.36L240.553 150.775L239.708 151.163L238.835 151.519L237.938 151.847L237.016 152.144L236.07 152.409L235.103 152.642L234.117 152.844L233.11 153.01L232.088 153.14L231.049 153.235L229.993 153.291L228.926 153.31L228.906 153.314Z" fill="#FEFEFE"/>
<path d="M269.52 159.508C272.273 159.508 274.671 158.147 275.9 156.118H275.932L276.062 159.223H277.032V148.77C277.032 146.172 274.085 144.242 270.685 144.242C268.546 144.242 266.605 144.779 265.081 145.701L265.696 146.65C266.957 145.891 268.675 145.353 270.681 145.353C273.66 145.353 275.896 146.998 275.896 148.774V150.166H268.934C265.825 150.166 263.169 152.132 263.169 154.698C263.169 157.392 265.469 159.512 269.516 159.512L269.52 159.508ZM269.52 158.369C266.023 158.369 264.341 156.688 264.341 154.695C264.341 152.919 266.286 151.305 268.938 151.305H275.9V153.302C275.9 155.711 273.114 158.369 269.52 158.369Z" fill="#FEFEFE" stroke="#FEFEFE" stroke-width="0.0452058" stroke-miterlimit="22.9256"/>
<path fill-rule="evenodd" clip-rule="evenodd" d="M191.586 94.0968C212.71 94.0968 229.84 110.85 229.84 131.519C229.84 152.183 212.714 168.94 191.586 168.94C170.462 168.94 153.333 152.187 153.333 131.519C153.333 110.854 170.458 94.0968 191.586 94.0968V94.0968Z" stroke="#D2B86A" stroke-width="0.5" stroke-miterlimit="22.9256" stroke-dasharray="0.3 0.2"/>
<path fill-rule="evenodd" clip-rule="evenodd" d="M161.681 114.84C174.618 114.84 185.11 125.104 185.11 137.759C185.11 150.415 174.623 160.678 161.681 160.678C148.744 160.678 138.253 150.419 138.253 137.759C138.253 125.104 148.74 114.84 161.681 114.84Z" stroke="#9C721C" stroke-width="1.03" stroke-miterlimit="22.9256"/>
<path d="M53.7334 197.313V171.428H52.2942V198.761H71.3885V197.313H53.7334ZM79.0497 198.761V171.428H77.6105V198.761H79.0497ZM88.1946 182.941V172.879H95.7265C99.8421 172.879 102.886 175.134 102.886 177.59C102.886 180.41 99.5955 182.945 95.1928 182.945H88.1987L88.1946 182.941ZM88.1946 184.388H97.5781C102.227 184.388 105.85 187.529 105.85 191.191C105.85 194.454 102.312 197.309 97.7438 197.309H88.1946V184.388ZM99.4297 183.384V183.344C102.353 182.257 104.366 180.081 104.366 177.586C104.366 174.042 100.335 171.428 95.7265 171.428H86.7554V198.761H97.7438C103.133 198.761 107.329 195.26 107.329 191.191C107.329 187.327 103.913 184.107 99.4297 183.38V183.384ZM114.995 172.879H131.166V171.432H113.555V198.765H132.65V197.317H114.995V185.844H125.284V184.396H114.995V172.883V172.879ZM159.199 198.765H159.446V197.317H159.199C158.172 197.317 157.675 197.036 156.935 195.909L152.654 189.387C151.873 188.221 150.927 187.453 149.937 186.971V186.931C152.076 186.769 153.927 186.164 154.918 185.401C156.935 183.87 157.962 181.616 157.962 179.362C157.962 175.375 154.792 171.432 148.579 171.432H138.868V198.765H140.307V187.252H144.01C147.633 187.252 149.565 187.374 151.417 190.19L155.654 196.672C156.846 198.484 157.918 198.765 159.191 198.765H159.199ZM140.311 185.844V172.883H148.583C153.931 172.883 156.482 176.182 156.482 179.366C156.482 182.344 154.137 185.848 148.583 185.848H140.311V185.844ZM165.668 171.432V198.765H175.217C182.951 198.765 189.165 192.686 189.165 185.12C189.165 177.55 182.951 171.432 175.217 171.432H165.668ZM167.107 197.317V172.883H175.213C182.126 172.883 187.681 178.357 187.681 185.12C187.681 191.883 182.126 197.317 175.213 197.317H167.107ZM196.705 190.151L203.452 173.647L210.159 190.151H196.705ZM196.13 191.559H210.737L213.782 199.006L215.18 198.523L203.99 171.068H202.878L191.728 198.523L193.127 199.006L196.13 191.559ZM220.707 171.432V198.765H230.256C237.99 198.765 244.204 192.686 244.204 185.12C244.204 177.55 237.99 171.432 230.256 171.432H220.707ZM222.146 197.317V172.883H230.252C237.165 172.883 242.72 178.357 242.72 185.12C242.72 191.883 237.165 197.317 230.252 197.317H222.146ZM251.865 172.883H268.036V171.436H250.426V198.768H269.52V197.321H251.865V185.848H262.154V184.4H251.865V172.887V172.883Z" fill="#FEFEFE" stroke="#FEFEFE" stroke-width="0.0796961" stroke-miterlimit="22.9256"/>
<path d="M34.8129 111.973C33.2686 111.973 31.6878 111.34 31.0086 110.288L29.9332 110.957C30.9035 112.468 32.9856 113.239 34.817 113.239C37.9057 113.239 40.7397 111.202 40.7397 107.583V89.0779H31.7646V90.3435H39.446V107.587C39.446 110.431 37.2589 111.977 34.817 111.977L34.8129 111.973Z" fill="#FEFEFE" stroke="#FEFEFE" stroke-width="0.0452058" stroke-miterlimit="22.9256"/>
<path fill-rule="evenodd" clip-rule="evenodd" d="M167.58 102.256C183.367 102.256 196.167 114.777 196.167 130.221C196.167 145.665 183.367 158.187 167.58 158.187C151.793 158.187 138.993 145.665 138.993 130.221C138.993 114.777 151.793 102.256 167.58 102.256Z" stroke="#F9DC3E" stroke-width="2.19" stroke-miterlimit="22.9256"/>
</svg>
