<svg width="307" height="300" viewBox="0 0 307 300" fill="none" xmlns="http://www.w3.org/2000/svg">
<path fill-rule="evenodd" clip-rule="evenodd" d="M153.334 0C237.666 0 306.667 67.4989 306.667 150C306.667 232.499 237.666 300 153.334 300C69.0008 300 0 232.499 0 150C0 67.4989 69.0008 0 153.334 0Z" fill="#B05727"/>
<path d="M49.2374 202.564C49.2374 203.707 48.9771 204.563 48.4618 205.129C47.9447 205.695 47.1275 205.976 46.012 205.976C45.4063 205.976 44.8928 205.91 44.4697 205.778C44.0467 205.647 43.808 205.573 43.7538 205.56C43.5657 205.495 43.4916 205.369 43.5314 205.185L43.714 204.12C43.7411 203.963 43.8207 203.903 43.9563 203.944C44.0232 203.97 44.1443 204.02 44.3197 204.09C44.495 204.163 44.6885 204.221 44.9037 204.267C45.1188 204.313 45.3538 204.336 45.6106 204.336C46.2289 204.336 46.6665 204.175 46.9214 203.853C47.1781 203.532 47.3047 202.955 47.3047 202.127V191.396C47.3047 191.225 47.3842 191.14 47.547 191.14H49.0187C49.1669 191.14 49.2411 191.225 49.2411 191.396V202.562L49.2374 202.564ZM52.396 205.78C52.3147 205.78 52.255 205.749 52.2134 205.691C52.1737 205.633 52.1737 205.55 52.2134 205.443L57.4368 191.419C57.4765 191.315 57.5235 191.241 57.5778 191.202C57.6302 191.163 57.7188 191.144 57.8399 191.144H59.4129C59.6678 191.144 59.8215 191.241 59.8758 191.439L65.0376 205.445L65.0575 205.544C65.0575 205.702 64.9834 205.781 64.8351 205.781H63.4032C63.2423 205.781 63.1356 205.716 63.0814 205.583L61.691 201.756C61.6639 201.703 61.6368 201.664 61.6096 201.637C61.5825 201.611 61.5283 201.597 61.4487 201.597H55.5817C55.4606 201.597 55.3792 201.65 55.3395 201.754L53.9075 205.601C53.8678 205.719 53.7665 205.778 53.6056 205.778H52.396V205.78ZM60.9244 200.098C61.0727 200.098 61.1269 200.014 61.0853 199.842L58.6662 193.353C58.6246 193.234 58.5776 193.176 58.5252 193.176C58.4709 193.176 58.4239 193.234 58.3842 193.353L55.9235 199.881L55.8837 199.999C55.8837 200.065 55.9361 200.097 56.0446 200.097H60.9244V200.098ZM61.2282 187.79C61.2408 187.817 61.248 187.856 61.248 187.909C61.248 188.013 61.1739 188.085 61.0275 188.126L56.4098 189.546C56.3827 189.559 56.3429 189.566 56.2887 189.566C56.1947 189.566 56.1278 189.507 56.0862 189.387L55.9253 188.954C55.9126 188.927 55.9054 188.896 55.9054 188.857C55.9054 188.75 55.9452 188.692 56.0265 188.678L60.6839 186.785C60.6966 186.773 60.7237 186.766 60.7635 186.766C60.8449 186.766 60.8991 186.807 60.9244 186.884L61.2282 187.794V187.79ZM83.143 205.405C83.1557 205.431 83.1629 205.477 83.1629 205.543C83.1629 205.7 83.0816 205.78 82.9206 205.78H81.4489C81.3007 205.78 81.1922 205.7 81.1253 205.543L78.5254 199.329C78.4856 199.249 78.4314 199.191 78.3645 199.15C78.2976 199.112 78.1909 199.092 78.0426 199.092H74.6363C74.4754 199.092 74.3941 199.165 74.3941 199.31V205.465C74.3941 205.583 74.3706 205.666 74.3236 205.712C74.2765 205.758 74.1862 205.781 74.0506 205.781H72.7397C72.6331 205.781 72.5589 205.762 72.5174 205.723C72.4776 205.682 72.4577 205.619 72.4577 205.525V191.421C72.4577 191.317 72.474 191.243 72.5083 191.204C72.5427 191.165 72.6041 191.145 72.7 191.145H78.3265C79.9266 191.145 81.1632 191.467 82.0365 192.111C82.9098 192.757 83.3473 193.696 83.3473 194.932C83.3473 195.972 83.0617 196.81 82.4903 197.447C81.919 198.086 81.2229 198.523 80.4021 198.758C80.3497 198.772 80.3153 198.798 80.3026 198.837C80.29 198.878 80.2954 198.917 80.3225 198.956L83.1466 205.406L83.143 205.405ZM77.7588 197.73C78.9557 197.73 79.8506 197.52 80.4419 197.099C81.0331 196.678 81.3278 196.013 81.3278 195.105C81.3278 194.251 81.0656 193.606 80.5413 193.172C80.017 192.739 79.245 192.521 78.2216 192.521H74.6725C74.4845 192.521 74.3905 192.594 74.3905 192.739V197.472C74.3905 197.643 74.4501 197.728 74.5731 197.728H77.7588V197.73ZM85.8171 205.778C85.7357 205.778 85.676 205.748 85.6345 205.689C85.5947 205.631 85.5947 205.548 85.6345 205.442L90.8578 191.418C90.8976 191.313 90.9446 191.239 90.9988 191.2C91.0513 191.161 91.1398 191.142 91.261 191.142H92.834C93.0889 191.142 93.2426 191.239 93.2968 191.437L98.4587 205.443L98.4785 205.543C98.4785 205.7 98.4044 205.78 98.2562 205.78H96.8242C96.6633 205.78 96.5566 205.714 96.5024 205.581L95.112 201.754C95.0849 201.701 95.0578 201.662 95.0307 201.635C95.0036 201.609 94.9493 201.595 94.8698 201.595H89.0028C88.8816 201.595 88.8003 201.648 88.7605 201.752L87.3286 205.599C87.2888 205.718 87.1875 205.776 87.0266 205.776H85.8171V205.778ZM94.3454 200.097C94.4937 200.097 94.5479 200.012 94.5064 199.84L92.0872 193.351C92.0457 193.232 91.9986 193.174 91.9462 193.174C91.892 193.174 91.845 193.232 91.8052 193.351L89.3445 199.879L89.3047 199.998C89.3047 200.063 89.3571 200.095 89.4656 200.095H94.3454V200.097ZM103.19 191.142C103.351 191.142 103.432 191.227 103.432 191.398V205.443C103.432 205.574 103.405 205.665 103.351 205.711C103.299 205.757 103.205 205.78 103.069 205.78H101.798C101.677 205.78 101.596 205.76 101.556 205.721C101.516 205.68 101.496 205.61 101.496 205.504V191.419C101.496 191.235 101.577 191.144 101.738 191.144H103.19V191.142ZM113.264 205.976C111.946 205.976 110.807 205.686 109.847 205.107C108.885 204.529 108.15 203.68 107.64 202.564C107.13 201.446 106.875 200.098 106.875 198.521C106.875 196.931 107.133 195.565 107.651 194.428C108.168 193.289 108.907 192.424 109.869 191.833C110.831 191.241 111.968 190.945 113.286 190.945C114.59 190.945 115.723 191.241 116.685 191.833C117.647 192.426 118.381 193.287 118.893 194.417C119.403 195.549 119.659 196.909 119.659 198.501C119.659 200.079 119.403 201.429 118.893 202.545C118.383 203.662 117.647 204.513 116.685 205.099C115.723 205.684 114.584 205.976 113.268 205.976H113.264ZM113.304 204.536C114.756 204.536 115.843 204.043 116.56 203.056C117.28 202.069 117.64 200.558 117.64 198.519C117.64 196.441 117.273 194.898 116.541 193.894C115.808 192.887 114.722 192.385 113.283 192.385C111.818 192.385 110.719 192.891 109.987 193.904C109.254 194.916 108.887 196.455 108.887 198.521C108.887 200.56 109.252 202.071 109.987 203.058C110.719 204.044 111.823 204.538 113.302 204.538L113.304 204.536ZM133.682 200.907C133.682 202.644 133.228 203.921 132.321 204.743C131.413 205.566 130.073 205.976 128.298 205.976C126.429 205.976 125.065 205.535 124.205 204.655C123.344 203.774 122.914 202.414 122.914 200.571V191.418C122.914 191.234 122.988 191.142 123.134 191.142H124.586C124.747 191.142 124.828 191.227 124.828 191.398V200.985C124.828 202.18 125.129 203.068 125.725 203.646C126.324 204.225 127.22 204.515 128.417 204.515C129.614 204.515 130.518 204.221 131.129 203.638C131.742 203.052 132.048 202.148 132.048 200.926V191.398C132.048 191.227 132.122 191.142 132.27 191.142H133.46C133.608 191.142 133.682 191.221 133.682 191.379V200.907ZM141.099 205.78C141.017 205.78 140.958 205.749 140.916 205.691C140.876 205.633 140.876 205.55 140.916 205.443L146.139 191.419C146.179 191.315 146.226 191.241 146.28 191.202C146.333 191.163 146.421 191.144 146.543 191.144H148.116C148.371 191.144 148.524 191.241 148.578 191.439L153.74 205.445L153.76 205.544C153.76 205.702 153.686 205.781 153.538 205.781H152.106C151.945 205.781 151.838 205.716 151.784 205.583L150.394 201.756C150.367 201.703 150.339 201.664 150.312 201.637C150.285 201.611 150.231 201.597 150.151 201.597H144.284C144.163 201.597 144.082 201.65 144.042 201.754L142.61 205.601C142.57 205.719 142.469 205.778 142.308 205.778H141.099V205.78ZM149.627 200.098C149.775 200.098 149.83 200.014 149.788 199.842L147.369 193.353C147.327 193.234 147.28 193.176 147.228 193.176C147.174 193.176 147.127 193.234 147.087 193.353L144.626 199.881L144.586 199.999C144.586 200.065 144.639 200.097 144.747 200.097H149.627V200.098ZM161.157 191.419C161.157 191.235 161.238 191.144 161.399 191.144H162.851C163.012 191.144 163.093 191.228 163.093 191.4V204.122C163.093 204.202 163.106 204.253 163.135 204.28C163.162 204.306 163.214 204.319 163.296 204.319H170.273C170.354 204.319 170.414 204.331 170.454 204.359C170.495 204.386 170.513 204.437 170.513 204.517V205.562C170.513 205.707 170.432 205.78 170.271 205.78H161.439C161.332 205.78 161.258 205.76 161.216 205.721C161.177 205.68 161.157 205.61 161.157 205.504V191.419ZM175.163 191.144C175.324 191.144 175.406 191.228 175.406 191.4V205.445C175.406 205.576 175.379 205.666 175.324 205.712C175.272 205.758 175.178 205.781 175.042 205.781H173.771C173.65 205.781 173.569 205.762 173.529 205.723C173.489 205.682 173.469 205.611 173.469 205.505V191.421C173.469 191.237 173.551 191.145 173.712 191.145H175.163V191.144ZM179.732 205.78C179.665 205.78 179.607 205.757 179.56 205.711C179.513 205.665 179.49 205.608 179.49 205.543V191.419C179.49 191.235 179.577 191.144 179.752 191.144H184.41C186.198 191.144 187.579 191.469 188.554 192.12C189.528 192.771 190.016 193.706 190.016 194.93C190.016 195.733 189.801 196.404 189.371 196.943C188.94 197.483 188.275 197.909 187.375 198.225C187.322 198.238 187.293 198.264 187.293 198.303C187.293 198.344 187.32 198.369 187.375 198.383C189.378 198.882 190.38 200.047 190.38 201.874C190.38 203.176 189.882 204.152 188.888 204.803C187.894 205.454 186.447 205.78 184.552 205.78H179.732ZM184.674 197.672C185.615 197.672 186.415 197.474 187.075 197.079C187.733 196.685 188.062 196.039 188.062 195.146C188.062 194.278 187.74 193.623 187.093 193.183C186.447 192.742 185.554 192.523 184.411 192.523H181.688C181.515 192.523 181.426 192.603 181.426 192.76V197.415C181.426 197.587 181.486 197.672 181.609 197.672H184.674ZM184.451 204.398C185.769 204.398 186.749 204.188 187.396 203.767C188.042 203.346 188.364 202.695 188.364 201.814C188.364 200.894 188.027 200.21 187.355 199.762C186.684 199.317 185.789 199.092 184.674 199.092H181.71C181.604 199.092 181.529 199.108 181.488 199.142C181.448 199.175 181.428 199.237 181.428 199.329V204.122C181.428 204.227 181.441 204.299 181.47 204.34C181.497 204.379 181.544 204.398 181.611 204.398H184.453H184.451ZM193.761 191.419C193.761 191.315 193.777 191.241 193.811 191.202C193.846 191.163 193.907 191.144 194.003 191.144H203.057C203.191 191.144 203.26 191.216 203.26 191.361V192.366C203.26 192.523 203.173 192.603 202.998 192.603H195.961C195.854 192.603 195.784 192.619 195.749 192.65C195.715 192.684 195.699 192.746 195.699 192.838V197.454C195.699 197.599 195.773 197.672 195.921 197.672H201.144C201.291 197.672 201.365 197.744 201.365 197.889V198.935C201.365 199.053 201.291 199.112 201.144 199.112H195.921C195.775 199.112 195.699 199.184 195.699 199.329V204.122C195.699 204.202 195.711 204.253 195.74 204.28C195.767 204.306 195.82 204.319 195.901 204.319H203.301C203.381 204.319 203.439 204.331 203.473 204.359C203.506 204.386 203.522 204.437 203.522 204.517V205.562C203.522 205.707 203.448 205.78 203.301 205.78H194.046C193.94 205.78 193.865 205.76 193.824 205.721C193.784 205.68 193.764 205.61 193.764 205.504V191.419H193.761ZM217.285 205.405C217.297 205.431 217.304 205.477 217.304 205.543C217.304 205.7 217.223 205.78 217.062 205.78H215.59C215.442 205.78 215.334 205.7 215.267 205.543L212.667 199.329C212.627 199.249 212.573 199.191 212.506 199.15C212.439 199.112 212.332 199.092 212.184 199.092H208.778C208.617 199.092 208.536 199.165 208.536 199.31V205.465C208.536 205.583 208.512 205.666 208.465 205.712C208.418 205.758 208.328 205.781 208.192 205.781H206.881C206.775 205.781 206.7 205.762 206.659 205.723C206.619 205.682 206.599 205.619 206.599 205.525V191.421C206.599 191.317 206.615 191.243 206.65 191.204C206.684 191.165 206.746 191.145 206.841 191.145H212.468C214.068 191.145 215.305 191.467 216.178 192.111C217.051 192.757 217.489 193.696 217.489 194.932C217.489 195.972 217.203 196.81 216.632 197.447C216.061 198.086 215.364 198.523 214.544 198.758C214.491 198.772 214.457 198.798 214.444 198.837C214.432 198.878 214.437 198.917 214.464 198.956L217.288 205.406L217.285 205.405ZM211.9 197.73C213.097 197.73 213.992 197.52 214.583 197.099C215.175 196.678 215.469 196.013 215.469 195.105C215.469 194.251 215.207 193.606 214.683 193.172C214.159 192.739 213.386 192.521 212.363 192.521H208.814C208.626 192.521 208.532 192.594 208.532 192.739V197.472C208.532 197.643 208.592 197.728 208.715 197.728H211.9V197.73ZM221.089 191.142C222.419 191.142 223.475 191.147 224.254 191.161C226.97 191.2 228.955 191.817 230.212 193.015C231.468 194.212 232.098 196 232.098 198.381C232.098 203.312 229.414 205.778 224.052 205.778H221.089C220.901 205.778 220.807 205.673 220.807 205.463V191.398C220.807 191.306 220.826 191.241 220.866 191.2C220.908 191.161 220.98 191.142 221.089 191.142ZM222.904 192.581C222.797 192.581 222.743 192.673 222.743 192.857V204.14C222.743 204.22 222.759 204.274 222.794 204.308C222.828 204.342 222.891 204.357 222.985 204.357H223.75C225.256 204.357 226.469 204.163 227.39 203.776C228.312 203.386 228.99 202.76 229.427 201.892C229.865 201.023 230.082 199.867 230.082 198.42C230.082 196.973 229.874 195.832 229.458 194.998C229.042 194.163 228.406 193.563 227.552 193.202C226.699 192.841 225.567 192.64 224.155 192.601C223.887 192.589 223.47 192.581 222.906 192.581H222.904ZM233.826 205.778C233.745 205.778 233.685 205.748 233.643 205.689C233.604 205.631 233.604 205.548 233.643 205.442L238.867 191.418C238.907 191.313 238.954 191.239 239.008 191.2C239.06 191.161 239.149 191.142 239.27 191.142H240.843C241.098 191.142 241.252 191.239 241.306 191.437L246.468 205.443L246.488 205.543C246.488 205.7 246.413 205.78 246.265 205.78H244.833C244.672 205.78 244.566 205.714 244.511 205.581L243.121 201.754C243.094 201.701 243.067 201.662 243.04 201.635C243.013 201.609 242.958 201.595 242.879 201.595H237.012C236.891 201.595 236.809 201.648 236.769 201.752L235.338 205.599C235.298 205.718 235.196 205.776 235.036 205.776H233.826V205.778ZM242.354 200.097C242.503 200.097 242.557 200.012 242.515 199.84L240.096 193.351C240.055 193.232 240.008 193.174 239.955 193.174C239.901 193.174 239.854 193.232 239.814 193.351L237.353 199.879L237.314 199.998C237.314 200.063 237.366 200.095 237.475 200.095H242.354V200.097ZM249.789 191.142C251.12 191.142 252.175 191.147 252.955 191.161C255.67 191.2 257.656 191.817 258.912 193.015C260.169 194.212 260.798 196 260.798 198.381C260.798 203.312 258.115 205.778 252.752 205.778H249.789C249.601 205.778 249.507 205.673 249.507 205.463V191.398C249.507 191.306 249.527 191.241 249.567 191.2C249.608 191.161 249.68 191.142 249.789 191.142ZM251.604 192.581C251.497 192.581 251.443 192.673 251.443 192.857V204.14C251.443 204.22 251.46 204.274 251.494 204.308C251.528 204.342 251.592 204.357 251.686 204.357H252.45C253.956 204.357 255.17 204.163 256.09 203.776C257.012 203.386 257.69 202.76 258.127 201.892C258.565 201.023 258.782 199.867 258.782 198.42C258.782 196.973 258.574 195.832 258.158 194.998C257.742 194.163 257.106 193.563 256.253 193.202C255.399 192.841 254.267 192.64 252.855 192.601C252.588 192.589 252.17 192.581 251.606 192.581H251.604ZM264.239 191.418C264.239 191.313 264.255 191.239 264.289 191.2C264.323 191.161 264.385 191.142 264.481 191.142H273.535C273.669 191.142 273.738 191.214 273.738 191.359V192.364C273.738 192.521 273.651 192.601 273.476 192.601H266.439C266.332 192.601 266.262 192.617 266.227 192.649C266.193 192.682 266.177 192.744 266.177 192.836V197.452C266.177 197.598 266.251 197.67 266.399 197.67H271.622C271.769 197.67 271.843 197.743 271.843 197.888V198.933C271.843 199.051 271.769 199.11 271.622 199.11H266.399C266.253 199.11 266.177 199.182 266.177 199.327V204.12C266.177 204.2 266.189 204.251 266.218 204.278C266.245 204.304 266.298 204.317 266.379 204.317H273.779C273.859 204.317 273.917 204.329 273.951 204.357C273.984 204.384 274 204.435 274 204.515V205.56C274 205.705 273.926 205.778 273.779 205.778H264.524C264.418 205.778 264.343 205.758 264.302 205.719C264.262 205.679 264.242 205.608 264.242 205.502V191.418H264.239Z" fill="#FEFEFE"/>
<path fill-rule="evenodd" clip-rule="evenodd" d="M178.174 81.576C188.291 81.576 196.494 89.6006 196.494 99.4983C196.494 109.398 188.291 117.421 178.174 117.421C168.054 117.421 159.853 109.398 159.853 99.4983C159.853 89.6006 168.054 81.576 178.174 81.576V81.576Z" stroke="#D2B86A" stroke-width="0.5" stroke-miterlimit="22.9256" stroke-dasharray="0.3 0.2"/>
<path d="M58.1455 121.745C55.3341 121.745 52.9041 121.128 50.852 119.893C48.7999 118.659 47.2288 116.847 46.1385 114.463C45.0483 112.077 44.5041 109.2 44.5041 105.834C44.5041 102.436 45.0555 99.5248 46.1602 97.0964C47.2649 94.6697 48.8433 92.8232 50.8936 91.5603C52.9457 90.2975 55.3756 89.6661 58.1889 89.6661C60.9714 89.6661 63.3887 90.2975 65.4408 91.5603C67.4929 92.8232 69.0623 94.6626 70.1525 97.0752C71.2427 99.4894 71.7887 102.395 71.7887 105.791C71.7887 109.161 71.2427 112.037 70.1525 114.421C69.0623 116.807 67.4911 118.625 65.4408 119.872C63.3887 121.122 60.9588 121.745 58.1455 121.745ZM58.2323 118.671C61.3312 118.671 63.6473 117.619 65.1823 115.514C66.7173 113.409 67.4839 110.181 67.4839 105.832C67.4839 101.396 66.7028 98.1063 65.1389 95.9591C63.575 93.8119 61.2589 92.7383 58.1889 92.7383C55.061 92.7383 52.7161 93.819 51.1521 95.9803C49.5882 98.1399 48.8072 101.424 48.8072 105.832C48.8072 110.181 49.59 113.409 51.1521 115.514C52.7161 117.619 55.0755 118.671 58.2323 118.671ZM96.3885 95.8954C94.5516 93.7907 92.1126 92.7383 89.0733 92.7383C86.92 92.7383 85.2277 93.2017 83.9946 94.1267C82.7615 95.0535 82.145 96.3447 82.145 98.0002C82.145 100.188 83.68 101.789 86.75 102.799L92.9894 104.82C95.5134 105.634 97.3431 106.722 98.4767 108.084C99.6104 109.444 100.176 111.108 100.176 113.073C100.176 115.767 99.1566 117.886 97.1207 119.43C95.0831 120.974 92.3006 121.745 88.7714 121.745C86.1895 121.745 83.9151 121.296 81.9497 120.399C79.9862 119.501 78.4006 118.195 77.1947 116.483C77.079 116.258 77.0229 116.119 77.0229 116.062C77.0229 115.866 77.1658 115.67 77.4532 115.473L79.0027 114.421C79.2594 114.253 79.4619 114.168 79.6048 114.168C79.7765 114.168 79.9338 114.253 80.0785 114.421C81.3115 115.965 82.5319 117.06 83.7361 117.705C84.9402 118.351 86.562 118.673 88.5978 118.673C91.0097 118.673 92.881 118.252 94.2153 117.41C95.5496 116.568 96.2167 115.263 96.2167 113.494C96.2167 112.399 95.866 111.465 95.1609 110.694C94.4575 109.921 93.1901 109.2 91.3532 108.526L84.8118 106.336C82.5446 105.579 80.874 104.491 79.7982 103.075C78.7224 101.658 78.1837 100.093 78.1837 98.3805C78.1837 96.6401 78.6357 95.1119 79.5397 93.7924C80.4437 92.473 81.7201 91.456 83.3708 90.7397C85.0197 90.0234 86.92 89.6661 89.0733 89.6661C91.167 89.6661 93.069 90.0304 94.7758 90.7609C96.4825 91.4914 97.938 92.5155 99.1421 93.8349C99.2849 93.9746 99.3591 94.1143 99.3591 94.2558C99.3591 94.3956 99.2867 94.5229 99.1421 94.6343L97.1641 96.1501C97.0791 96.235 96.9924 96.2757 96.9056 96.2757C96.8206 96.2757 96.647 96.1501 96.3885 95.8972V95.8954ZM133.418 95.8954C131.581 93.7907 129.142 92.7383 126.103 92.7383C123.95 92.7383 122.257 93.2017 121.024 94.1267C119.791 95.0535 119.175 96.3447 119.175 98.0002C119.175 100.188 120.71 101.789 123.78 102.799L130.019 104.82C132.543 105.634 134.373 106.722 135.507 108.084C136.64 109.444 137.206 111.108 137.206 113.073C137.206 115.767 136.186 117.886 134.151 119.43C132.113 120.974 129.33 121.745 125.801 121.745C123.219 121.745 120.945 121.296 118.98 120.399C117.016 119.501 115.43 118.195 114.224 116.483C114.109 116.258 114.053 116.119 114.053 116.062C114.053 115.866 114.196 115.67 114.483 115.473L116.033 114.421C116.289 114.253 116.492 114.168 116.635 114.168C116.806 114.168 116.964 114.253 117.108 114.421C118.341 115.965 119.562 117.06 120.766 117.705C121.97 118.351 123.592 118.673 125.628 118.673C128.039 118.673 129.911 118.252 131.245 117.41C132.579 116.568 133.247 115.263 133.247 113.494C133.247 112.399 132.896 111.465 132.191 110.694C131.487 109.921 130.22 109.2 128.383 108.526L121.842 106.336C119.574 105.579 117.904 104.491 116.828 103.075C115.752 101.658 115.213 100.093 115.213 98.3805C115.213 96.6401 115.665 95.1119 116.569 93.7924C117.473 92.473 118.75 91.456 120.401 90.7397C122.05 90.0234 123.95 89.6661 126.103 89.6661C128.197 89.6661 130.099 90.0304 131.806 90.7609C133.512 91.4914 134.968 92.5155 136.172 93.8349C136.315 93.9746 136.389 94.1143 136.389 94.2558C136.389 94.3956 136.317 94.5229 136.172 94.6343L134.194 96.1501C134.109 96.235 134.022 96.2757 133.935 96.2757C133.85 96.2757 133.677 96.1501 133.418 95.8972V95.8954ZM204.977 90.0853C205.149 90.0853 205.27 90.1206 205.343 90.1914C205.413 90.2604 205.449 90.3948 205.449 90.5911V120.818C205.449 121.154 205.261 121.324 204.889 121.324H202.781C202.551 121.324 202.372 121.303 202.242 121.262C202.114 121.22 201.991 121.129 201.877 120.988L185.265 97.3688C185.151 97.1724 185.042 97.0875 184.943 97.1158C184.843 97.1441 184.793 97.2414 184.793 97.4112V120.778C184.793 121.142 184.592 121.324 184.191 121.324H181.781C181.408 121.324 181.222 121.142 181.222 120.778V90.6742C181.222 90.4496 181.256 90.2957 181.329 90.2108C181.399 90.1277 181.551 90.0853 181.781 90.0853H184.234C184.464 90.0853 184.636 90.1136 184.749 90.1701C184.865 90.225 184.994 90.3382 185.136 90.5062L201.275 113.62C201.417 113.788 201.548 113.873 201.662 113.873C201.833 113.873 201.92 113.747 201.92 113.494V90.5911C201.92 90.255 202.092 90.0853 202.437 90.0853H204.976H204.977ZM231.427 95.8954C229.59 93.7907 227.151 92.7383 224.112 92.7383C221.958 92.7383 220.266 93.2017 219.033 94.1267C217.8 95.0535 217.183 96.3447 217.183 98.0002C217.183 100.188 218.718 101.789 221.788 102.799L228.028 104.82C230.552 105.634 232.381 106.722 233.515 108.084C234.649 109.444 235.215 111.108 235.215 113.073C235.215 115.767 234.195 117.886 232.159 119.43C230.121 120.974 227.339 121.745 223.81 121.745C221.228 121.745 218.953 121.296 216.988 120.399C215.025 119.501 213.439 118.195 212.233 116.483C212.117 116.258 212.061 116.119 212.061 116.062C212.061 115.866 212.204 115.67 212.492 115.473L214.041 114.421C214.298 114.253 214.5 114.168 214.643 114.168C214.815 114.168 214.972 114.253 215.117 114.421C216.35 115.965 217.57 117.06 218.774 117.705C219.979 118.351 221.6 118.673 223.636 118.673C226.048 118.673 227.919 118.252 229.254 117.41C230.588 116.568 231.255 115.263 231.255 113.494C231.255 112.399 230.904 111.465 230.199 110.694C229.496 109.921 228.228 109.2 226.391 108.526L219.85 106.336C217.583 105.579 215.912 104.491 214.837 103.075C213.761 101.658 213.222 100.093 213.222 98.3805C213.222 96.6401 213.674 95.1119 214.578 93.7924C215.482 92.473 216.758 91.456 218.409 90.7397C220.058 90.0234 221.958 89.6661 224.112 89.6661C226.205 89.6661 228.107 90.0304 229.814 90.7609C231.521 91.4914 232.976 92.5155 234.18 93.8349C234.323 93.9746 234.397 94.1143 234.397 94.2558C234.397 94.3956 234.325 94.5229 234.18 94.6343L232.202 96.1501C232.117 96.235 232.031 96.2757 231.944 96.2757C231.859 96.2757 231.685 96.1501 231.427 95.8972V95.8954ZM46.4821 141.112C49.3224 141.112 51.5752 141.126 53.2386 141.155C59.0332 141.238 63.273 142.557 65.9561 145.113C68.6392 147.667 69.9807 151.484 69.9807 156.564C69.9807 167.089 64.2566 172.351 52.8083 172.351H46.4839C46.0825 172.351 45.8818 172.126 45.8818 171.677V141.659C45.8818 141.461 45.9234 141.323 46.0102 141.238C46.0969 141.155 46.2542 141.112 46.4839 141.112H46.4821ZM50.3548 144.186C50.1252 144.186 50.0095 144.384 50.0095 144.777V168.858C50.0095 169.026 50.0456 169.146 50.118 169.215C50.1885 169.286 50.3259 169.321 50.5266 169.321H52.1628C55.3756 169.321 57.9647 168.907 59.93 168.078C61.8935 167.25 63.3435 165.909 64.2765 164.058C65.2094 162.206 65.6741 159.735 65.6741 156.647C65.6741 153.559 65.2293 151.125 64.3397 149.342C63.452 147.559 62.096 146.282 60.2735 145.511C58.4511 144.74 56.0338 144.312 53.0216 144.227C52.4467 144.199 51.5589 144.185 50.353 144.185L50.3548 144.186ZM89.5868 172.772C86.7753 172.772 84.3454 172.155 82.2933 170.92C80.2412 169.686 78.67 167.874 77.5798 165.49C76.4896 163.104 75.9453 160.227 75.9453 156.861C75.9453 153.463 76.4968 150.552 77.6015 148.123C78.7062 145.697 80.2846 143.85 82.3349 142.587C84.3869 141.325 86.8169 140.693 89.6302 140.693C92.4127 140.693 94.83 141.325 96.8821 142.587C98.9342 143.85 100.504 145.69 101.594 148.102C102.684 150.516 103.23 153.422 103.23 156.818C103.23 160.188 102.684 163.064 101.594 165.448C100.504 167.834 98.9324 169.652 96.8821 170.899C94.83 172.149 92.4 172.772 89.5868 172.772ZM89.6736 169.698C92.7725 169.698 95.0885 168.646 96.6235 166.541C98.1585 164.436 98.9251 161.208 98.9251 156.859C98.9251 152.423 98.1441 149.133 96.5801 146.986C95.0162 144.839 92.7002 143.765 89.6302 143.765C86.5023 143.765 84.1573 144.846 82.5934 147.007C81.0295 149.167 80.2484 152.451 80.2484 156.859C80.2484 161.208 81.0313 164.436 82.5934 166.541C84.1573 168.646 86.5168 169.698 89.6736 169.698ZM120.433 172.351C120.29 172.351 120.167 172.302 120.068 172.204C119.969 172.107 119.918 171.987 119.918 171.847V141.703C119.918 141.31 120.104 141.114 120.477 141.114H130.417C134.232 141.114 137.181 141.809 139.26 143.199C141.341 144.588 142.381 146.588 142.381 149.199C142.381 150.911 141.921 152.344 141.005 153.493C140.086 154.643 138.667 155.557 136.743 156.229C136.629 156.258 136.571 156.312 136.571 156.397C136.571 156.481 136.629 156.537 136.743 156.565C141.017 157.632 143.156 160.115 143.156 164.017C143.156 166.796 142.095 168.879 139.971 170.269C137.848 171.658 134.763 172.353 130.717 172.353H120.431L120.433 172.351ZM130.977 155.048C132.986 155.048 134.693 154.627 136.1 153.785C137.504 152.943 138.21 151.567 138.21 149.659C138.21 147.807 137.521 146.411 136.143 145.47C134.765 144.529 132.858 144.061 130.419 144.061H124.61C124.237 144.061 124.049 144.229 124.049 144.565V154.501C124.049 154.866 124.178 155.048 124.436 155.048H130.977ZM130.504 169.404C133.315 169.404 135.411 168.955 136.787 168.057C138.164 167.158 138.853 165.77 138.853 163.888C138.853 161.923 138.135 160.464 136.702 159.51C135.268 158.555 133.36 158.079 130.977 158.079H124.653C124.422 158.079 124.266 158.115 124.179 158.184C124.094 158.255 124.051 158.389 124.051 158.583V168.814C124.051 169.038 124.08 169.192 124.138 169.277C124.194 169.36 124.295 169.403 124.438 169.403H130.506L130.504 169.404ZM173.178 171.552C173.207 171.606 173.222 171.705 173.222 171.845C173.222 172.181 173.05 172.351 172.704 172.351H169.562C169.248 172.351 169.018 172.183 168.873 171.845L163.323 158.583C163.236 158.415 163.12 158.29 162.979 158.205C162.836 158.122 162.607 158.079 162.29 158.079H155.017C154.673 158.079 154.5 158.233 154.5 158.543V171.679C154.5 171.932 154.451 172.107 154.35 172.204C154.25 172.302 154.055 172.351 153.769 172.351H150.972C150.741 172.351 150.585 172.309 150.499 172.225C150.414 172.142 150.37 172.001 150.37 171.805V141.701C150.37 141.477 150.405 141.323 150.477 141.238C150.547 141.155 150.685 141.112 150.885 141.112H162.892C166.306 141.112 168.946 141.8 170.812 143.176C172.677 144.551 173.609 146.558 173.609 149.197C173.609 151.415 172.999 153.203 171.779 154.565C170.56 155.927 169.074 156.859 167.326 157.365C167.212 157.393 167.138 157.45 167.109 157.533C167.082 157.616 167.096 157.701 167.152 157.786L173.176 171.553L173.178 171.552ZM161.688 155.175C164.241 155.175 166.149 154.726 167.412 153.827C168.674 152.929 169.305 151.512 169.305 149.576C169.305 147.75 168.747 146.376 167.628 145.449C166.508 144.522 164.86 144.061 162.679 144.061H155.105C154.704 144.061 154.501 144.215 154.501 144.524V154.627C154.501 154.991 154.63 155.175 154.888 155.175H161.688ZM178.886 172.351C178.714 172.351 178.586 172.289 178.499 172.162C178.412 172.036 178.412 171.859 178.499 171.635L189.646 141.701C189.731 141.477 189.832 141.323 189.946 141.238C190.06 141.155 190.248 141.112 190.506 141.112H193.862C194.406 141.112 194.737 141.325 194.853 141.744L205.869 171.635L205.912 171.845C205.912 172.181 205.755 172.351 205.438 172.351H202.385C202.039 172.351 201.81 172.211 201.696 171.93L198.727 163.762C198.669 163.651 198.613 163.566 198.555 163.511C198.499 163.454 198.384 163.426 198.212 163.426H185.688C185.431 163.426 185.258 163.538 185.173 163.762L182.117 171.973C182.032 172.225 181.815 172.351 181.472 172.351H178.89H178.886ZM197.091 160.227C197.407 160.227 197.521 160.044 197.434 159.68L192.271 145.829C192.186 145.576 192.085 145.451 191.971 145.451C191.857 145.451 191.754 145.576 191.669 145.829L186.418 159.763L186.333 160.016C186.333 160.156 186.447 160.227 186.677 160.227H197.091ZM229.48 146.922C227.643 144.818 225.204 143.765 222.164 143.765C220.011 143.765 218.319 144.229 217.086 145.154C215.853 146.081 215.236 147.372 215.236 149.027C215.236 151.215 216.771 152.816 219.841 153.826L226.081 155.847C228.604 156.661 230.434 157.749 231.568 159.111C232.701 160.471 233.267 162.135 233.267 164.1C233.267 166.794 232.248 168.913 230.212 170.457C228.174 172.001 225.392 172.772 221.862 172.772C219.281 172.772 217.006 172.323 215.041 171.426C213.077 170.528 211.492 169.222 210.286 167.51C210.17 167.286 210.114 167.146 210.114 167.089C210.114 166.893 210.257 166.697 210.544 166.5L212.094 165.448C212.35 165.28 212.553 165.195 212.696 165.195C212.868 165.195 213.025 165.28 213.17 165.448C214.403 166.992 215.623 168.087 216.827 168.732C218.031 169.378 219.653 169.7 221.689 169.7C224.101 169.7 225.972 169.279 227.306 168.437C228.641 167.595 229.308 166.29 229.308 164.521C229.308 163.426 228.957 162.492 228.252 161.721C227.549 160.948 226.281 160.227 224.444 159.553L217.903 157.363C215.636 156.606 213.965 155.518 212.889 154.102C211.814 152.685 211.275 151.12 211.275 149.407C211.275 147.667 211.727 146.139 212.631 144.819C213.535 143.5 214.811 142.483 216.462 141.767C218.111 141.05 220.011 140.693 222.164 140.693C224.258 140.693 226.16 141.057 227.867 141.788C229.574 142.518 231.029 143.542 232.233 144.862C232.376 145.002 232.45 145.141 232.45 145.283C232.45 145.423 232.378 145.55 232.233 145.661L230.255 147.177C230.17 147.262 230.083 147.303 229.997 147.303C229.912 147.303 229.738 147.177 229.48 146.924V146.922ZM243.794 141.112C244.137 141.112 244.309 141.296 244.309 141.661V171.637C244.309 171.918 244.253 172.107 244.137 172.204C244.023 172.302 243.822 172.351 243.535 172.351H240.823C240.564 172.351 240.393 172.309 240.306 172.225C240.221 172.142 240.178 171.987 240.178 171.762V141.701C240.178 141.309 240.349 141.112 240.693 141.112H243.792H243.794ZM253.031 141.701C253.031 141.309 253.202 141.112 253.546 141.112H256.645C256.988 141.112 257.16 141.296 257.16 141.661V168.815C257.16 168.983 257.189 169.095 257.247 169.151C257.303 169.208 257.419 169.235 257.59 169.235H272.481C272.653 169.235 272.783 169.263 272.868 169.32C272.953 169.374 272.997 169.488 272.997 169.656V171.886C272.997 172.194 272.825 172.349 272.479 172.349H253.631C253.4 172.349 253.244 172.307 253.157 172.224C253.072 172.141 253.029 171.985 253.029 171.76V141.699L253.031 141.701Z" fill="#FEFEFE"/>
<path fill-rule="evenodd" clip-rule="evenodd" d="M161.419 89.6608C168.072 89.6608 173.467 94.9386 173.467 101.447C173.467 107.956 168.072 113.234 161.419 113.234C154.765 113.234 149.37 107.956 149.37 101.447C149.37 94.9386 154.765 89.6608 161.419 89.6608V89.6608Z" stroke="#C2721A" stroke-width="1.03" stroke-miterlimit="22.9256"/>
<path fill-rule="evenodd" clip-rule="evenodd" d="M158.759 89.6625C167.62 89.6625 174.805 96.7497 174.805 105.494C174.805 114.239 167.62 121.324 158.759 121.324C149.898 121.324 142.713 114.237 142.713 105.494C142.713 96.7497 149.898 89.6625 158.759 89.6625V89.6625Z" stroke="#FFF13C" stroke-width="2.19" stroke-miterlimit="22.9256"/>
</svg>
